<?xml version="1.0" encoding="UTF-8" standalone="no"?>
<svg
   width="57.364441mm"
   height="71.509407mm"
   viewBox="0 0 677.53203 844.60061"
   version="1.2"
   id="svg25"
   xmlns="http://www.w3.org/2000/svg"
   xmlns:svg="http://www.w3.org/2000/svg">
  <defs
     id="defs1" />
  <g
     fill="none"
     stroke="#000000"
     stroke-width="1"
     fill-rule="evenodd"
     stroke-linecap="square"
     stroke-linejoin="bevel"
     id="g25"
     transform="translate(-387.9308,-252.49931)">
    <g
       fill="none"
       stroke="#000000"
       stroke-opacity="1"
       stroke-width="1"
       stroke-linecap="square"
       stroke-linejoin="bevel"
       font-family="Arial"
       font-size="12px"
       font-weight="400"
       font-style="normal"
       id="g2" />
    <g
       fill="#000000"
       fill-opacity="1"
       stroke="#000000"
       stroke-opacity="1"
       stroke-width="1"
       stroke-linecap="butt"
       stroke-linejoin="miter"
       stroke-miterlimit="2"
       font-family="Arial"
       font-size="12px"
       font-weight="400"
       font-style="normal"
       id="g3" />
    <g
       fill="#000000"
       fill-opacity="1"
       stroke="#000000"
       stroke-opacity="1"
       stroke-width="5"
       stroke-linecap="round"
       stroke-linejoin="bevel"
       font-family="Arial"
       font-size="12px"
       font-weight="400"
       font-style="normal"
       id="g9">
      <polyline
         fill="none"
         vector-effect="none"
         points="903.838,877.111 903.838,976.502 "
         id="polyline3" />
      <polyline
         fill="none"
         vector-effect="none"
         points="785.743,1094.6 791.923,1094.44 798.087,1093.95 804.217,1093.14 810.296,1092.02 816.308,1090.57 822.236,1088.82 828.064,1086.75 833.776,1084.39 839.357,1081.73 844.79,1078.78 850.062,1075.55 855.157,1072.04 860.063,1068.28 864.764,1064.26 869.249,1060.01 873.505,1055.52 877.52,1050.82 881.284,1045.92 884.786,1040.82 888.016,1035.55 890.966,1030.12 893.628,1024.54 895.994,1018.82 898.058,1013 899.814,1007.07 901.257,1001.06 902.384,994.976 903.191,988.846 903.676,982.683 903.838,976.502 "
         id="polyline4" />
      <polyline
         fill="none"
         vector-effect="none"
         points="667.648,1094.6 785.743,1094.6 "
         id="polyline5" />
      <polyline
         fill="none"
         vector-effect="none"
         points="549.552,976.502 549.714,982.683 550.199,988.846 551.006,994.976 552.133,1001.06 553.576,1007.07 555.332,1013 557.396,1018.82 559.762,1024.54 562.424,1030.12 565.374,1035.55 568.605,1040.82 572.107,1045.92 575.87,1050.82 579.886,1055.52 584.142,1060.01 588.626,1064.26 593.328,1068.28 598.233,1072.04 603.328,1075.55 608.6,1078.78 614.033,1081.73 619.614,1084.39 625.326,1086.75 631.154,1088.82 637.082,1090.57 643.094,1092.02 649.173,1093.14 655.303,1093.95 661.467,1094.44 667.648,1094.6 "
         id="polyline6" />
      <polyline
         fill="none"
         vector-effect="none"
         points="549.552,877.111 549.552,976.502 "
         id="polyline7" />
      <polyline
         fill="none"
         vector-effect="none"
         points="944.876,591.275 944.708,582.71 944.204,574.157 943.364,565.631 942.19,557.144 940.684,548.71 938.848,540.342 936.685,532.052 934.198,523.854 931.391,515.759 928.268,507.781 924.835,499.932 921.096,492.223 917.057,484.668 912.725,477.276 908.106,470.061 903.207,463.032 898.036,456.201 892.601,449.578 886.91,443.174 880.972,436.998 874.797,431.06 868.392,425.369 861.77,419.934 854.939,414.763 847.91,409.865 840.694,405.246 833.303,400.913 825.747,396.875 818.039,393.136 810.189,389.702 802.211,386.58 794.117,383.773 785.918,381.286 777.629,379.123 769.26,377.287 760.826,375.781 752.34,374.607 743.813,373.767 735.261,373.263 726.695,373.094 718.129,373.263 709.577,373.767 701.051,374.607 692.564,375.781 684.13,377.287 675.762,379.123 667.472,381.286 659.274,383.773 651.179,386.58 643.201,389.702 635.352,393.136 627.643,396.875 620.087,400.913 612.696,405.246 605.48,409.865 598.452,414.763 591.621,419.934 584.998,425.369 578.594,431.06 572.418,436.998 566.48,443.174 560.789,449.578 555.354,456.201 550.183,463.032 545.284,470.061 540.665,477.276 536.333,484.668 532.295,492.223 528.556,499.932 525.122,507.781 522,515.759 519.193,523.854 516.706,532.052 514.543,540.342 512.707,548.71 511.2,557.144 510.027,565.631 509.187,574.157 508.682,582.71 508.514,591.275 508.682,599.841 509.187,608.394 510.027,616.92 511.2,625.406 512.707,633.84 514.543,642.209 516.706,650.499 519.193,658.697 522,666.792 525.122,674.77 528.556,682.619 532.295,690.327 536.333,697.883 540.665,705.275 545.284,712.49 550.183,719.519 555.354,726.35 560.789,732.973 566.48,739.377 572.418,745.553 578.594,751.491 584.998,757.181 591.621,762.617 598.452,767.787 605.48,772.686 612.696,777.305 620.087,781.637 627.643,785.676 635.352,789.415 643.201,792.848 651.179,795.971 659.274,798.778 667.472,801.265 675.762,803.428 684.13,805.264 692.564,806.77 701.051,807.944 709.577,808.784 718.129,809.288 726.695,809.456 735.261,809.288 743.813,808.784 752.34,807.944 760.826,806.77 769.26,805.264 777.629,803.428 785.918,801.265 794.117,798.778 802.211,795.971 810.189,792.848 818.039,789.415 825.747,785.676 833.303,781.637 840.694,777.305 847.91,772.686 854.939,767.787 861.77,762.617 868.392,757.181 874.797,751.491 880.972,745.553 886.91,739.377 892.601,732.973 898.036,726.35 903.207,719.519 908.106,712.49 912.725,705.275 917.057,697.883 921.096,690.327 924.835,682.619 928.268,674.77 931.391,666.792 934.198,658.697 936.685,650.499 938.848,642.209 940.684,633.84 942.19,625.406 943.364,616.92 944.204,608.394 944.708,599.841 944.876,591.275 "
         id="polyline8" />
      <polyline
         fill="none"
         vector-effect="none"
         points="903.838,877.111 912.765,871.382 921.508,865.373 930.056,859.093 938.402,852.545 946.537,845.738 954.454,838.677 962.144,831.37 969.6,823.824 976.814,816.047 983.779,808.047 990.488,799.83 996.935,791.406 1003.11,782.783 1009.02,773.969 1014.64,764.973 1019.97,755.805 1025.02,746.473 1029.76,736.986 1034.21,727.355 1038.35,717.588 1042.18,707.695 1045.69,697.687 1048.89,687.572 1051.77,677.362 1054.32,667.066 1056.55,656.695 1058.45,646.259 1060.02,635.768 1061.25,625.232 1062.16,614.663 1062.73,604.071 1062.96,593.466 1062.87,582.858 1062.43,572.259 1061.67,561.679 1060.57,551.129 1059.13,540.618 1057.37,530.158 1055.28,519.758 1052.86,509.43 1050.12,499.183 1047.05,489.028 1043.67,478.975 1039.97,469.033 1035.95,459.213 1031.64,449.524 1027.01,439.977 1022.09,430.58 1016.88,421.343 1011.37,412.275 1005.58,403.385 999.519,394.682 993.182,386.175 986.581,377.871 979.72,369.78 972.608,361.91 965.251,354.268 957.657,346.861 949.833,339.698 941.787,332.785 933.527,326.13 925.061,319.738 916.398,313.617 907.546,307.771 898.514,302.208 889.311,296.933 879.947,291.95 870.429,287.265 860.769,282.883 850.975,278.808 841.058,275.043 831.027,271.593 820.892,268.462 810.663,265.651 800.351,263.165 789.965,261.005 779.517,259.174 769.016,257.673 758.472,256.504 747.898,255.668 737.302,255.167 726.695,254.999 716.089,255.167 705.493,255.668 694.918,256.504 684.375,257.673 673.874,259.174 663.425,261.005 653.04,263.165 642.727,265.651 632.499,268.462 622.364,271.593 612.332,275.043 602.415,278.808 592.621,282.883 582.961,287.265 573.444,291.95 564.079,296.933 554.876,302.208 545.844,307.771 536.992,313.617 528.329,319.738 519.863,326.13 511.603,332.785 503.557,339.698 495.733,346.861 488.139,354.268 480.782,361.91 473.67,369.78 466.81,377.871 460.208,386.175 453.872,394.682 447.807,403.385 442.019,412.275 436.515,421.343 431.3,430.58 426.378,439.977 421.755,449.524 417.436,459.213 413.425,469.033 409.725,478.975 406.34,489.028 403.275,499.183 400.531,509.43 398.112,519.758 396.02,530.158 394.256,540.618 392.824,551.129 391.724,561.679 390.957,572.259 390.524,582.858 390.426,593.466 390.663,604.071 391.233,614.663 392.138,625.232 393.375,635.768 394.945,646.259 396.844,656.695 399.071,667.066 401.625,677.362 404.502,687.572 407.699,697.687 411.214,707.695 415.043,717.588 419.183,727.355 423.628,736.986 428.374,746.473 433.418,755.805 438.753,764.973 444.375,773.969 450.278,782.783 456.456,791.406 462.902,799.83 469.612,808.047 476.577,816.047 483.791,823.824 491.246,831.37 498.936,838.677 506.853,845.738 514.988,852.545 523.334,859.093 531.883,865.373 540.625,871.382 549.552,877.111 "
         id="polyline9" />
    </g>
    <g
       fill="none"
       stroke="#000000"
       stroke-opacity="1"
       stroke-width="1"
       stroke-linecap="square"
       stroke-linejoin="bevel"
       font-family="Arial"
       font-size="12px"
       font-weight="400"
       font-style="normal"
       id="g24" />
  </g>
</svg>
