<?xml version="1.0" encoding="UTF-8" standalone="no"?>
<svg
   width="235.69173mm"
   height="295.23502mm"
   viewBox="0 0 2783.77 3487.0277"
   version="1.2"
   id="svg26"
   sodipodi:docname="Shelf Drawing 1.svg"
   xmlns:inkscape="http://www.inkscape.org/namespaces/inkscape"
   xmlns:sodipodi="http://sodipodi.sourceforge.net/DTD/sodipodi-0.dtd"
   xmlns="http://www.w3.org/2000/svg"
   xmlns:svg="http://www.w3.org/2000/svg">
  <sodipodi:namedview
     id="namedview26"
     pagecolor="#505050"
     bordercolor="#ffffff"
     borderopacity="1"
     inkscape:showpageshadow="0"
     inkscape:pageopacity="0"
     inkscape:pagecheckerboard="1"
     inkscape:deskcolor="#505050"
     inkscape:document-units="mm"
     inkscape:zoom="0.25294472"
     inkscape:cx="2490.6627"
     inkscape:cy="881.61554"
     inkscape:window-width="1920"
     inkscape:window-height="1013"
     inkscape:window-x="-9"
     inkscape:window-y="-9"
     inkscape:window-maximized="1"
     inkscape:current-layer="g26" />
  <defs
     id="defs1" />
  <g
     fill="none"
     stroke="#000000"
     stroke-width="1"
     fill-rule="evenodd"
     stroke-linecap="square"
     stroke-linejoin="bevel"
     id="g26"
     transform="translate(-1883.7699,-1032.9872)">
    <g
       fill="none"
       stroke="#000000"
       stroke-opacity="1"
       stroke-width="1"
       stroke-linecap="square"
       stroke-linejoin="bevel"
       font-family="Arial"
       font-size="12px"
       font-weight="400"
       font-style="normal"
       id="g2" />
    <g
       fill="#000000"
       fill-opacity="1"
       stroke="#000000"
       stroke-opacity="1"
       stroke-width="1"
       stroke-linecap="butt"
       stroke-linejoin="miter"
       stroke-miterlimit="2"
       font-family="Arial"
       font-size="12px"
       font-weight="400"
       font-style="normal"
       id="g3" />
    <g
       fill="#000000"
       fill-opacity="1"
       stroke="#000000"
       stroke-opacity="1"
       stroke-width="5"
       stroke-linecap="round"
       stroke-linejoin="bevel"
       font-family="Arial"
       font-size="12px"
       font-weight="400"
       font-style="normal"
       id="g24">
      <polyline
         fill="none"
         vector-effect="none"
         points="2571.39,1243.34 2186.95,1243.34 "
         id="polyline3" />
      <polyline
         fill="none"
         vector-effect="none"
         points="2571.39,1295.31 2186.95,1295.31 "
         id="polyline4" />
      <polyline
         fill="none"
         vector-effect="none"
         points="3796.65,1295.31 3412.21,1295.31 "
         id="polyline5" />
      <polyline
         fill="none"
         vector-effect="none"
         points="3796.65,1243.34 3412.21,1243.34 "
         id="polyline6" />
      <polyline
         fill="none"
         vector-effect="none"
         points="4457.17,2231.85 4457.17,1847.42 "
         id="polyline7" />
      <polyline
         fill="none"
         vector-effect="none"
         points="4405.2,2231.85 4405.2,1847.42 "
         id="polyline8" />
      <polyline
         fill="none"
         vector-effect="none"
         points="4457.17,4223.02 4457.17,3838.59 "
         id="polyline9" />
      <polyline
         fill="none"
         vector-effect="none"
         points="4405.2,4223.02 4405.2,3838.59 "
         id="polyline10" />
      <polyline
         fill="none"
         vector-effect="none"
         points="2122.46,1035.47 2113.56,1035.64 2104.67,1036.14 2095.8,1036.98 2086.97,1038.15 2078.19,1039.66 2069.48,1041.49 2060.84,1043.65 2052.28,1046.14 2043.83,1048.94 2035.49,1052.06 2027.27,1055.5 2019.19,1059.24 2011.26,1063.29 2003.48,1067.63 1995.87,1072.26 1988.44,1077.17 1981.21,1082.36 1974.17,1087.82 1967.34,1093.54 1960.74,1099.52 1954.36,1105.73 1948.23,1112.19 1942.34,1118.87 1936.7,1125.77 1931.34,1132.88 1926.24,1140.18 1921.42,1147.67 1916.89,1155.34 1912.65,1163.17 1908.71,1171.16 1905.07,1179.29 1901.74,1187.55 1898.73,1195.93 1896.03,1204.41 1893.65,1213 1891.6,1221.67 1889.88,1230.4 1888.49,1239.2 1887.43,1248.04 1886.71,1256.92 1886.32,1265.82 1886.27,1274.72 1886.55,1283.63 1887.17,1292.51 1888.12,1301.37 1889.4,1310.18 1891.02,1318.94 1892.97,1327.63 1895.24,1336.24 1897.83,1344.76 1900.75,1353.18 1903.98,1361.48 1907.52,1369.65 1911.36,1377.68 1915.51,1385.56 1919.95,1393.28 1924.68,1400.83 1929.69,1408.2 1934.97,1415.37 "
         id="polyline11" />
      <polyline
         fill="none"
         vector-effect="none"
         points="2122.46,1035.47 4192.61,1035.47 "
         id="polyline12" />
      <polyline
         fill="none"
         vector-effect="none"
         points="4665.04,1507.9 4664.87,1495.32 4664.37,1482.76 4663.53,1470.21 4662.36,1457.68 4660.86,1445.2 4659.02,1432.75 4656.86,1420.37 4654.36,1408.04 4651.54,1395.78 4648.39,1383.6 4644.92,1371.51 4641.13,1359.52 4637.02,1347.63 4632.6,1335.86 4627.86,1324.21 4622.82,1312.69 4617.47,1301.3 4611.82,1290.07 4605.87,1278.98 4599.63,1268.06 4593.1,1257.31 4586.29,1246.74 4579.2,1236.35 4571.83,1226.16 4564.2,1216.16 4556.3,1206.38 4548.15,1196.8 4539.74,1187.45 4531.08,1178.32 4522.19,1169.43 4513.06,1160.77 4503.71,1152.36 4494.13,1144.21 4484.35,1136.31 4474.35,1128.68 4464.16,1121.31 4453.77,1114.22 4443.2,1107.41 4432.45,1100.88 4421.52,1094.64 4410.44,1088.69 4399.21,1083.04 4387.82,1077.69 4376.3,1072.65 4364.65,1067.91 4352.88,1063.49 4340.99,1059.38 4329,1055.59 4316.91,1052.12 4304.73,1048.97 4292.47,1046.15 4280.14,1043.65 4267.75,1041.49 4255.31,1039.65 4242.82,1038.15 4230.3,1036.98 4217.75,1036.14 4205.18,1035.64 4192.61,1035.47 "
         id="polyline13" />
      <polyline
         fill="none"
         vector-effect="none"
         points="4665.04,1507.9 4665.04,4281.32 "
         id="polyline14" />
      <polyline
         fill="none"
         vector-effect="none"
         points="4241.33,4425 4246.88,4431.96 4252.68,4438.71 4258.74,4445.24 4265.04,4451.53 4271.57,4457.58 4278.32,4463.38 4285.29,4468.92 4292.46,4474.2 4299.83,4479.2 4307.38,4483.92 4315.1,4488.35 4322.98,4492.49 4331.01,4496.33 4339.19,4499.86 4347.49,4503.09 4355.9,4505.99 4364.42,4508.58 4373.03,4510.85 4381.72,4512.79 4390.47,4514.4 4399.28,4515.68 4408.14,4516.62 4417.02,4517.24 4425.92,4517.51 4434.82,4517.46 4443.72,4517.06 4452.59,4516.33 4461.43,4515.27 4470.22,4513.88 4478.96,4512.15 4487.62,4510.1 4496.2,4507.72 4504.68,4505.02 4513.06,4502 4521.31,4498.67 4529.44,4495.03 4537.42,4491.09 4545.25,4486.85 4552.91,4482.31 4560.4,4477.49 4567.7,4472.4 4574.8,4467.03 4581.69,4461.39 4588.37,4455.51 4594.82,4449.37 4601.04,4442.99 4607.01,4436.39 4612.73,4429.57 4618.18,4422.53 4623.37,4415.29 4628.28,4407.87 4632.91,4400.26 4637.24,4392.49 4641.28,4384.55 4645.02,4376.47 4648.46,4368.26 4651.58,4359.92 4654.38,4351.47 4656.86,4342.92 4659.02,4334.28 4660.86,4325.57 4662.36,4316.8 4663.53,4307.97 4664.37,4299.11 4664.87,4290.22 4665.04,4281.32 "
         id="polyline15" />
      <polyline
         fill="none"
         vector-effect="none"
         points="4241.33,4425 1934.97,1415.37 "
         id="polyline16" />
      <polyline
         fill="none"
         vector-effect="none"
         points="2186.95,1243.34 2184.04,1243.5 2181.17,1243.99 2178.37,1244.8 2175.68,1245.91 2173.13,1247.32 2170.75,1249.01 2168.58,1250.95 2166.63,1253.12 2164.95,1255.5 2163.54,1258.05 2162.42,1260.74 2161.62,1263.54 2161.13,1266.41 2160.97,1269.32 2161.13,1272.23 2161.62,1275.11 2162.42,1277.91 2163.54,1280.6 2164.95,1283.15 2166.63,1285.52 2168.58,1287.7 2170.75,1289.64 2173.13,1291.32 2175.68,1292.73 2178.37,1293.85 2181.17,1294.66 2184.04,1295.14 2186.95,1295.31 "
         id="polyline17" />
      <polyline
         fill="none"
         vector-effect="none"
         points="2571.39,1295.31 2574.29,1295.14 2577.17,1294.66 2579.97,1293.85 2582.66,1292.73 2585.21,1291.32 2587.59,1289.64 2589.76,1287.7 2591.7,1285.52 2593.39,1283.15 2594.8,1280.6 2595.91,1277.91 2596.72,1275.11 2597.21,1272.23 2597.37,1269.32 2597.21,1266.41 2596.72,1263.54 2595.91,1260.74 2594.8,1258.05 2593.39,1255.5 2591.7,1253.12 2589.76,1250.95 2587.59,1249.01 2585.21,1247.32 2582.66,1245.91 2579.97,1244.8 2577.17,1243.99 2574.29,1243.5 2571.39,1243.34 "
         id="polyline18" />
      <polyline
         fill="none"
         vector-effect="none"
         points="3796.65,1295.31 3799.56,1295.14 3802.43,1294.66 3805.23,1293.85 3807.92,1292.73 3810.47,1291.32 3812.85,1289.64 3815.02,1287.7 3816.97,1285.52 3818.65,1283.15 3820.06,1280.6 3821.18,1277.91 3821.98,1275.11 3822.47,1272.23 3822.63,1269.32 3822.47,1266.41 3821.98,1263.54 3821.18,1260.74 3820.06,1258.05 3818.65,1255.5 3816.97,1253.12 3815.02,1250.95 3812.85,1249.01 3810.47,1247.32 3807.92,1245.91 3805.23,1244.8 3802.43,1243.99 3799.56,1243.5 3796.65,1243.34 "
         id="polyline19" />
      <polyline
         fill="none"
         vector-effect="none"
         points="3412.21,1243.34 3409.3,1243.5 3406.43,1243.99 3403.63,1244.8 3400.94,1245.91 3398.39,1247.32 3396.01,1249.01 3393.84,1250.95 3391.9,1253.12 3390.21,1255.5 3388.8,1258.05 3387.69,1260.74 3386.88,1263.54 3386.39,1266.41 3386.23,1269.32 3386.39,1272.23 3386.88,1275.11 3387.69,1277.91 3388.8,1280.6 3390.21,1283.15 3391.9,1285.52 3393.84,1287.7 3396.01,1289.64 3398.39,1291.32 3400.94,1292.73 3403.63,1293.85 3406.43,1294.66 3409.3,1295.14 3412.21,1295.31 "
         id="polyline20" />
      <polyline
         fill="none"
         vector-effect="none"
         points="4457.17,1847.42 4457.01,1844.51 4456.52,1841.64 4455.71,1838.84 4454.6,1836.14 4453.19,1833.59 4451.5,1831.22 4449.56,1829.04 4447.39,1827.1 4445.01,1825.42 4442.46,1824.01 4439.77,1822.89 4436.97,1822.09 4434.1,1821.6 4431.19,1821.43 4428.28,1821.6 4425.4,1822.09 4422.6,1822.89 4419.91,1824.01 4417.36,1825.42 4414.99,1827.1 4412.81,1829.04 4410.87,1831.22 4409.18,1833.59 4407.78,1836.14 4406.66,1838.84 4405.85,1841.64 4405.37,1844.51 4405.2,1847.42 "
         id="polyline21" />
      <polyline
         fill="none"
         vector-effect="none"
         points="4405.2,2231.85 4405.37,2234.76 4405.85,2237.64 4406.66,2240.44 4407.78,2243.13 4409.18,2245.68 4410.87,2248.05 4412.81,2250.23 4414.99,2252.17 4417.36,2253.85 4419.91,2255.26 4422.6,2256.38 4425.4,2257.19 4428.28,2257.67 4431.19,2257.84 4434.1,2257.67 4436.97,2257.19 4439.77,2256.38 4442.46,2255.26 4445.01,2253.85 4447.39,2252.17 4449.56,2250.23 4451.5,2248.05 4453.19,2245.68 4454.6,2243.13 4455.71,2240.44 4456.52,2237.64 4457.01,2234.76 4457.17,2231.85 "
         id="polyline22" />
      <polyline
         fill="none"
         vector-effect="none"
         points="4457.17,3838.59 4457.01,3835.68 4456.52,3832.8 4455.71,3830 4454.6,3827.31 4453.19,3824.76 4451.5,3822.39 4449.56,3820.21 4447.39,3818.27 4445.01,3816.59 4442.46,3815.18 4439.77,3814.06 4436.97,3813.25 4434.1,3812.77 4431.19,3812.6 4428.28,3812.77 4425.4,3813.25 4422.6,3814.06 4419.91,3815.18 4417.36,3816.59 4414.99,3818.27 4412.81,3820.21 4410.87,3822.39 4409.18,3824.76 4407.78,3827.31 4406.66,3830 4405.85,3832.8 4405.37,3835.68 4405.2,3838.59 "
         id="polyline23" />
      <polyline
         fill="none"
         vector-effect="none"
         points="4405.2,4223.02 4405.37,4225.93 4405.85,4228.8 4406.66,4231.6 4407.78,4234.3 4409.18,4236.85 4410.87,4239.22 4412.81,4241.4 4414.99,4243.34 4417.36,4245.02 4419.91,4246.43 4422.6,4247.55 4425.4,4248.35 4428.28,4248.84 4431.19,4249.01 4434.1,4248.84 4436.97,4248.35 4439.77,4247.55 4442.46,4246.43 4445.01,4245.02 4447.39,4243.34 4449.56,4241.4 4451.5,4239.22 4453.19,4236.85 4454.6,4234.3 4455.71,4231.6 4456.52,4228.8 4457.01,4225.93 4457.17,4223.02 "
         id="polyline24" />
    </g>
    <g
       fill="none"
       stroke="#000000"
       stroke-opacity="1"
       stroke-width="1"
       stroke-linecap="square"
       stroke-linejoin="bevel"
       font-family="Arial"
       font-size="12px"
       font-weight="400"
       font-style="normal"
       id="g25" />
  </g>
</svg>
